<svg viewBox="0 0 512 512" xmlns="http://www.w3.org/2000/svg" xmlns:xlink="http://www.w3.org/1999/xlink"><linearGradient id="a" gradientTransform="matrix(1 0 0 -1 0 -15158)" gradientUnits="userSpaceOnUse" x1="0" x2="512" y1="-15414" y2="-15414"><stop offset="0" stop-color="#00f1ff"/><stop offset=".231" stop-color="#00d8ff"/><stop offset=".5138" stop-color="#00c0ff"/><stop offset=".7773" stop-color="#00b2ff"/><stop offset="1" stop-color="#00adff"/></linearGradient><path d="m512 256c0 141.386719-114.613281 256-256 256s-256-114.613281-256-256 114.613281-256 256-256 256 114.613281 256 256zm0 0" fill="url(#a)"/><g fill="#fff"><path d="m328.917969 150.773438h6.878906c14.484375 0 26.273437 11.789062 26.273437 26.273437v6.878906c0 8.285157 6.714844 15 15 15 8.28125 0 15-6.714843 15-15v-6.878906c0-31.027344-25.246093-56.273437-56.273437-56.273437h-6.878906c-8.285157 0-15 6.714843-15 15 0 8.285156 6.714843 15 15 15zm0 0"/><path d="m119.929688 183.925781c0 8.285157 6.714843 15 15 15 8.285156 0 15-6.714843 15-15v-33.152343h32.464843c8.285157 0 15-6.714844 15-15 0-8.285157-6.714843-15-15-15h-32.464843v-26.273438c0-8.285156-6.714844-15-15-15-8.285157 0-15 6.714844-15 15v26.273438h-26.273438c-8.285156 0-15 6.714843-15 15 0 8.285156 6.714844 15 15 15h26.273438zm0 0"/><path d="m183.082031 362.226562h-6.878906c-14.484375 0-26.273437-11.789062-26.273437-26.273437v-6.191406c0-8.285157-6.714844-15-15-15-8.28125 0-15 6.714843-15 15v6.191406c0 31.027344 25.246093 56.273437 56.273437 56.273437h6.878906c8.285157 0 15-6.714843 15-15 0-8.285156-6.714843-15-15-15zm0 0"/><path d="m418.34375 362.226562h-26.273438v-32.464843c0-8.285157-6.714843-15-15-15-8.285156 0-15 6.714843-15 15v32.464843h-33.152343c-8.285157 0-15 6.714844-15 15 0 8.285157 6.714843 15 15 15h33.152343v26.273438c0 8.285156 6.714844 15 15 15 8.285157 0 15-6.714844 15-15v-26.273438h26.273438c8.285156 0 15-6.714843 15-15 0-8.285156-6.714844-15-15-15zm0 0"/><path d="m273.886719 120.773438h-35.773438c-8.285156 0-15 6.714843-15 15 0 8.285156 6.714844 15 15 15h35.773438c8.28125 0 15-6.714844 15-15 0-8.285157-6.71875-15-15-15zm0 0"/><path d="m273.886719 362.226562h-35.773438c-8.285156 0-15 6.714844-15 15 0 8.285157 6.714844 15 15 15h35.773438c8.28125 0 15-6.714843 15-15 0-8.285156-6.71875-15-15-15zm0 0"/><path d="m377.070312 223.957031c-8.285156 0-15 6.71875-15 15v35.773438c0 8.28125 6.714844 15 15 15 8.285157 0 15-6.71875 15-15v-35.773438c0-8.28125-6.714843-15-15-15zm0 0"/><path d="m134.929688 223.957031c-8.285157 0-15 6.71875-15 15v35.773438c0 8.28125 6.714843 15 15 15 8.285156 0 15-6.71875 15-15v-35.773438c0-8.28125-6.714844-15-15-15zm0 0"/></g></svg>